<svg xmlns="http://www.w3.org/2000/svg" viewBox="0 0 512 512"><g id="Layer_4" data-name="Layer 4"><rect width="512" height="512" rx="120" fill="#191c15" stroke="#1d1d1b" stroke-miterlimit="10" stroke-width="0.25"/></g><g id="Layer_3" data-name="Layer 3"><path d="M404.235,76V287.765a147.686,147.686,0,0,1-1.51,21.176,146.679,146.679,0,0,1-12.763,42.353,141.9,141.9,0,0,1-6.9,12.861q-2.541,4.257-5.407,8.316a147.521,147.521,0,0,1-15.77,19.03c-.338.353-.677.706-1.03,1.059s-.748.734-1.116,1.087a147.513,147.513,0,0,1-19.03,15.769c-.762.537-1.539,1.073-2.315,1.582q-2.945,2.012-6,3.826a142.3,142.3,0,0,1-12.862,6.9A148.23,148.23,0,0,1,256.028,436H256a147.531,147.531,0,0,1-21.176-1.511,146.635,146.635,0,0,1-42.353-12.762,142.3,142.3,0,0,1-12.862-6.9c-.423-.255-.861-.523-1.284-.777a130,130,0,0,0,14.146.777,127.034,127.034,0,0,0,127.03-125.2c.028-.621.028-1.242.028-1.863V76Z" fill="#3c3d37" stroke="#1d1d1b" stroke-miterlimit="10" stroke-width="0.25"/><path d="M277.176,287.765A84.506,84.506,0,0,1,248.955,350.9h-.014a84.4,84.4,0,0,1-56.47,21.572,84.706,84.706,0,1,1,84.7-84.706Z" fill="#3c3d37" stroke="#1d1d1b" stroke-miterlimit="10" stroke-width="0.25"/></g></svg>